<?xml version="1.0" encoding="UTF-8" standalone="no"?>
<!-- Created with Inkscape (http://www.inkscape.org/) -->
<svg
   xmlns:dc="http://purl.org/dc/elements/1.1/"
   xmlns:cc="http://creativecommons.org/ns#"
   xmlns:rdf="http://www.w3.org/1999/02/22-rdf-syntax-ns#"
   xmlns:svg="http://www.w3.org/2000/svg"
   xmlns="http://www.w3.org/2000/svg"
   xmlns:sodipodi="http://sodipodi.sourceforge.net/DTD/sodipodi-0.dtd"
   xmlns:inkscape="http://www.inkscape.org/namespaces/inkscape"
   width="12"
   height="24"
   id="svg2"
   sodipodi:version="0.32"
   inkscape:version="0.46"
   version="1.0"
   sodipodi:docname="U+2113.svg"
   inkscape:output_extension="org.inkscape.output.svg.inkscape">
  <defs
     id="defs4">
    <inkscape:perspective
       sodipodi:type="inkscape:persp3d"
       inkscape:vp_x="0 : 526.18109 : 1"
       inkscape:vp_y="0 : 1000 : 0"
       inkscape:vp_z="744.09448 : 526.18109 : 1"
       inkscape:persp3d-origin="372.04724 : 350.78739 : 1"
       id="perspective10" />
  </defs>
  <sodipodi:namedview
     id="base"
     pagecolor="#ffffff"
     bordercolor="#666666"
     borderopacity="1.0"
     gridtolerance="10000"
     guidetolerance="10"
     objecttolerance="10"
     inkscape:pageopacity="0.0"
     inkscape:pageshadow="2"
     inkscape:zoom="5.6466667"
     inkscape:cx="38.571429"
     inkscape:cy="14.285714"
     inkscape:document-units="px"
     inkscape:current-layer="layer1"
     showgrid="false"
     inkscape:window-width="850"
     inkscape:window-height="669"
     inkscape:window-x="388"
     inkscape:window-y="203" />
  <metadata
     id="metadata7">
    <rdf:RDF>
      <cc:Work
         rdf:about="">
        <dc:format>image/svg+xml</dc:format>
        <dc:type
           rdf:resource="http://purl.org/dc/dcmitype/StillImage" />
      </cc:Work>
    </rdf:RDF>
  </metadata>
  <g
     inkscape:label="Layer 1"
     inkscape:groupmode="layer"
     id="layer1"
     transform="translate(-120.92742,-605.53242)">
    <path

       style="font-size:30px;font-style:normal;font-variant:normal;font-weight:normal;font-stretch:normal;text-align:start;line-height:100%;writing-mode:lr-tb;text-anchor:start;fill:#11111;fill-opacity:1;stroke:none;stroke-width:1px;stroke-linecap:butt;stroke-linejoin:miter;stroke-opacity:1;font-family:Arial Unicode MS;-inkscape-font-specification:Arial Unicode MS"
       d="M 130.46768,625.83565 C 128.87933,627.59179 127.30776,628.46985 125.75298,628.46985 C 124.66797,628.46985 123.7899,628.05039 123.11877,627.21146 C 122.44763,626.37256 122.11207,625.25959 122.11207,623.87257 C 122.11207,621.15449 122.56788,618.46156 123.47951,615.7938 C 124.39112,613.12605 125.50688,610.95326 126.82678,609.27541 C 128.14668,607.59759 129.25404,606.75867 130.1489,606.75866 C 131.27864,606.75867 131.84351,607.4354 131.84352,608.78883 C 131.84351,610.60091 131.32896,612.4689 130.2999,614.3928 C 129.27082,616.31674 127.60977,618.54825 125.31673,621.08736 C 125.22725,622.12763 125.1825,622.84909 125.1825,623.25178 C 125.1825,626.04817 125.77533,627.44637 126.96101,627.44636 C 127.8111,627.44637 128.97999,626.60745 130.46768,624.92961 L 130.46768,625.83565 z M 125.35029,619.98 C 126.80441,618.35811 128.11311,616.4258 129.27642,614.18308 C 130.43971,611.94038 131.02136,610.2318 131.02137,609.05729 C 131.02136,608.1401 130.73053,607.68149 130.1489,607.68146 C 129.71265,607.68149 129.03592,608.55676 128.11872,610.30728 C 127.2015,612.05783 126.27868,615.28207 125.35029,619.98 L 125.35029,619.98 z"
       id="text2437" />
  </g>
</svg>
